<svg xmlns="http://www.w3.org/2000/svg" width="28" height="28" viewBox="0 0 28 28" fill="none"><rect opacity="0.32" x="13.6367" y="8.00598" width="9" height="9" rx="2.75" transform="rotate(-45 13.6367 8.00598)" fill="currentColor"></rect><path d="M3.5 7.90598C3.5 6.36584 3.5 5.59576 3.79973 5.00751C4.06338 4.49006 4.48408 4.06937 5.00153 3.80571C5.58978 3.50598 6.35986 3.50598 7.9 3.50598H8.1C9.64014 3.50598 10.4102 3.50598 10.9985 3.80571C11.5159 4.06937 11.9366 4.49006 12.2003 5.00751C12.5 5.59576 12.5 6.36584 12.5 7.90598V8.10598C12.5 9.64613 12.5 10.4162 12.2003 11.0045C11.9366 11.5219 11.5159 11.9426 10.9985 12.2062C10.4102 12.506 9.64014 12.506 8.1 12.506H7.9C6.35986 12.506 5.58978 12.506 5.00153 12.2062C4.48408 11.9426 4.06338 11.5219 3.79973 11.0045C3.5 10.4162 3.5 9.64613 3.5 8.10598V7.90598Z" fill="currentColor"></path><path d="M3.5 19.906C3.5 18.3658 3.5 17.5958 3.79973 17.0075C4.06338 16.4901 4.48408 16.0694 5.00153 15.8057C5.58978 15.506 6.35986 15.506 7.9 15.506H8.1C9.64014 15.506 10.4102 15.506 10.9985 15.8057C11.5159 16.0694 11.9366 16.4901 12.2003 17.0075C12.5 17.5958 12.5 18.3658 12.5 19.906V20.106C12.5 21.6461 12.5 22.4162 12.2003 23.0045C11.9366 23.5219 11.5159 23.9426 10.9985 24.2062C10.4102 24.506 9.64014 24.506 8.1 24.506H7.9C6.35986 24.506 5.58978 24.506 5.00153 24.2062C4.48408 23.9426 4.06338 23.5219 3.79973 23.0045C3.5 22.4162 3.5 21.6461 3.5 20.106V19.906Z" fill="currentColor"></path><path d="M15.7997 17.0075C15.5 17.5958 15.5 18.3658 15.5 19.906V20.106C15.5 21.6461 15.5 22.4162 15.7997 23.0045C16.0634 23.5219 16.4841 23.9426 17.0015 24.2062C17.5898 24.506 18.3599 24.506 19.9 24.506H20.1C21.6401 24.506 22.4102 24.506 22.9985 24.2062C23.5159 23.9426 23.9366 23.5219 24.2003 23.0045C24.5 22.4162 24.5 21.6461 24.5 20.106V19.906C24.5 18.3658 24.5 17.5958 24.2003 17.0075C23.9366 16.4901 23.5159 16.0694 22.9985 15.8057C22.4102 15.506 21.6401 15.506 20.1 15.506H19.9C18.3599 15.506 17.5898 15.506 17.0015 15.8057C16.4841 16.0694 16.0634 16.4901 15.7997 17.0075Z" fill="currentColor"></path></svg>