<svg xmlns="http://www.w3.org/2000/svg" width="1.75rem" height="1.75rem" viewBox="0 0 28 29" fill="none"><path d="M3 8.00783V16.6078C3 18.848 3 19.9681 3.43597 20.8238C3.81947 21.5764 4.43139 22.1884 5.18404 22.5719C6.03969 23.0078 7.15979 23.0078 9.4 23.0078H18.6C20.8402 23.0078 21.9603 23.0078 22.816 22.5719C23.5686 22.1884 24.1805 21.5764 24.564 20.8238C25 19.9681 25 18.848 25 16.6078V8.00781L16.5233 13.0168C15.6051 13.5593 15.1461 13.8306 14.6568 13.9367C14.224 14.0305 13.776 14.0305 13.3432 13.9367C12.8539 13.8306 12.3949 13.5593 11.4767 13.0168L3 8.00783Z" fill="currentColor"></path><path opacity="0.32" d="M3 8.00777L11.4767 2.99881C12.3949 2.45626 12.8539 2.18499 13.3432 2.07892C13.776 1.98509 14.224 1.98509 14.6568 2.07892C15.1461 2.18499 15.6051 2.45626 16.5233 2.99881L25 8.00777L16.5233 13.0167C15.6051 13.5593 15.1461 13.8306 14.6568 13.9366C14.224 14.0305 13.776 14.0305 13.3432 13.9366C12.8539 13.8306 12.3949 13.5593 11.4767 13.0167L3 8.00777Z" fill="currentColor"></path></svg>