<svg xmlns="http://www.w3.org/2000/svg" width="1.75rem" height="1.75rem" viewBox="0 0 28 29" fill="none"><path fill-rule="evenodd" clip-rule="evenodd" d="M2.5 6.51099C2.5 5.68256 3.17157 5.01099 4 5.01099H24C24.8284 5.01099 25.5 5.68256 25.5 6.51099C25.5 7.33941 24.8284 8.01099 24 8.01099H23L22.3544 18.9868C22.2296 21.1072 22.1673 22.1674 21.7147 22.972C21.3163 23.6802 20.7117 24.2504 19.9812 24.6065C19.1515 25.011 18.0895 25.011 15.9654 25.011H12.0346C9.91054 25.011 8.84851 25.011 8.01876 24.6065C7.28832 24.2504 6.68366 23.6802 6.28528 22.972C5.83273 22.1674 5.77037 21.1072 5.64564 18.9868L5 8.01099H4C3.17157 8.01099 2.5 7.33941 2.5 6.51099ZM10.1178 10.0136C9.29078 10.0622 8.6598 10.7721 8.70844 11.5991L9.17903 19.5991C9.22768 20.4261 9.93753 21.057 10.7645 21.0084C11.5915 20.9597 12.2225 20.2499 12.1739 19.4229L11.7033 11.4229C11.6546 10.5959 10.9448 9.96491 10.1178 10.0136ZM17.8822 10.0136C18.7092 10.0622 19.3402 10.7721 19.2915 11.5991L18.8209 19.5991C18.7723 20.4261 18.0624 21.057 17.2354 21.0084C16.4084 20.9597 15.7775 20.2499 15.8261 19.4229L16.2967 11.4229C16.3453 10.5959 17.0552 9.96491 17.8822 10.0136Z" fill="currentColor"></path><g opacity="0.32"><path d="M14 2.01099C12.3431 2.01099 11 3.35413 11 5.01099C11 6.66784 12.3431 8.01099 14 8.01099C15.6569 8.01099 17 6.66784 17 5.01099C17 3.35413 15.6569 2.01099 14 2.01099Z" fill="currentColor"></path><path d="M10.1178 10.0136C9.29078 10.0623 8.6598 10.7721 8.70844 11.5991L9.17903 19.5991C9.22768 20.4261 9.93753 21.0571 10.7645 21.0084C11.5915 20.9598 12.2225 20.2499 12.1739 19.4229L11.7033 11.4229C11.6546 10.596 10.9448 9.96497 10.1178 10.0136Z" fill="currentColor"></path><path d="M17.8822 10.0136C18.7092 10.0623 19.3402 10.7721 19.2915 11.5991L18.8209 19.5991C18.7723 20.4261 18.0624 21.0571 17.2354 21.0084C16.4084 20.9598 15.7775 20.2499 15.8261 19.4229L16.2967 11.4229C16.3453 10.596 17.0552 9.96497 17.8822 10.0136Z" fill="currentColor"></path></g></svg>