<svg xmlns="http://www.w3.org/2000/svg" width="1.75rem" height="1.75rem" viewBox="0 0 28 29" fill="none"><path fill-rule="evenodd" clip-rule="evenodd" d="M4.43597 5.19478C4 6.05043 4 7.17053 4 9.41074V18.6107C4 20.851 4 21.9711 4.43597 22.8267C4.81947 23.5794 5.43139 24.1913 6.18404 24.5748C7.03969 25.0107 8.15979 25.0107 10.4 25.0107H17.6C19.8402 25.0107 20.9603 25.0107 21.816 24.5748C22.5686 24.1913 23.1805 23.5794 23.564 22.8267C24 21.9711 24 20.851 24 18.6107V11.0107H20.8C19.1198 11.0107 18.2798 11.0107 17.638 10.6838C17.0735 10.3961 16.6146 9.9372 16.327 9.37271C16 8.73098 16 7.8909 16 6.21074V3.01074H10.4C8.15979 3.01074 7.03969 3.01074 6.18404 3.44672C5.43139 3.83021 4.81947 4.44213 4.43597 5.19478ZM7 20.5107C7 19.6823 7.67157 19.0107 8.5 19.0107H15.5C16.3284 19.0107 17 19.6823 17 20.5107C17 21.3392 16.3284 22.0107 15.5 22.0107H8.5C7.67157 22.0107 7 21.3392 7 20.5107ZM8.5 14.0107C7.67157 14.0107 7 14.6823 7 15.5107C7 16.3392 7.67157 17.0107 8.5 17.0107H11.5C12.3284 17.0107 13 16.3392 13 15.5107C13 14.6823 12.3284 14.0107 11.5 14.0107H8.5Z" fill="currentColor"></path><g opacity="0.32"><path d="M16 3.01074L24 11.0107H20.8C19.1198 11.0107 18.2798 11.0107 17.638 10.6838C17.0735 10.3961 16.6146 9.9372 16.327 9.37271C16 8.73098 16 7.8909 16 6.21074V3.01074Z" fill="currentColor"></path><path d="M7 15.5107C7 14.6823 7.67157 14.0107 8.5 14.0107H11.5C12.3284 14.0107 13 14.6823 13 15.5107C13 16.3392 12.3284 17.0107 11.5 17.0107H8.5C7.67157 17.0107 7 16.3392 7 15.5107Z" fill="currentColor"></path><path d="M7 20.5107C7 19.6823 7.67157 19.0107 8.5 19.0107H15.5C16.3284 19.0107 17 19.6823 17 20.5107C17 21.3392 16.3284 22.0107 15.5 22.0107H8.5C7.67157 22.0107 7 21.3392 7 20.5107Z" fill="currentColor"></path></g></svg>