<svg xmlns="http://www.w3.org/2000/svg" width="1.75rem" height="1.75rem" viewBox="0 0 28 29" fill="none"><path fill-rule="evenodd" clip-rule="evenodd" d="M17.3734 3.35929C15.7238 2.452 14.899 1.99836 14 1.99836C13.101 1.99836 12.2762 2.452 10.6266 3.35929L6.07232 5.86413C5.062 6.41981 4.55684 6.69764 4.27842 7.16853C4 7.63941 4 8.21594 4 9.36899V15.5039C4 21.0783 8.99721 24.0632 13.0827 25.2605C13.6822 25.4362 14.3178 25.4362 14.9173 25.2605C19.0028 24.0632 24 21.0783 24 15.5039V9.36899C24 8.21594 24 7.63941 23.7216 7.16853C23.4432 6.69764 22.938 6.41981 21.9277 5.86413L17.3734 3.35929ZM18.5607 13.0646C19.1464 12.4788 19.1464 11.529 18.5607 10.9432C17.9749 10.3575 17.0251 10.3575 16.4393 10.9432L12.5 14.8826L11.0607 13.4432C10.4749 12.8575 9.52513 12.8575 8.93934 13.4432C8.35355 14.029 8.35355 14.9788 8.93934 15.5646L11.4393 18.0646C12.0251 18.6504 12.9749 18.6504 13.5607 18.0646L18.5607 13.0646Z" fill="currentColor"></path><path opacity="0.32" fill-rule="evenodd" clip-rule="evenodd" d="M18.5607 10.9432C19.1464 11.529 19.1464 12.4788 18.5607 13.0646L13.5607 18.0646C12.9749 18.6504 12.0251 18.6504 11.4393 18.0646L8.93934 15.5646C8.35355 14.9788 8.35355 14.029 8.93934 13.4432C9.52513 12.8575 10.4749 12.8575 11.0607 13.4432L12.5 14.8826L16.4393 10.9432C17.0251 10.3575 17.9749 10.3575 18.5607 10.9432Z" fill="currentColor"></path></svg>