<svg xmlns="http://www.w3.org/2000/svg" width="1.75rem" height="1.75rem" viewBox="0 0 28 29" fill="none"><path opacity="0.32" d="M22 10.0088L15.0976 18.1116C13.0602 20.5034 12.0414 21.6993 10.8949 21.4765C9.74832 21.2537 9.25153 19.7634 8.25794 16.7826L7.5 14.5088L22 6.00879V10.0088Z" fill="currentColor"></path><path d="M23.8107 9.42676L21.4953 19.9747C21.0468 22.0178 20.8225 23.0394 20.0576 23.3252C19.2927 23.6111 18.4535 22.987 16.7749 21.7389L11.7129 17.9748C11.2667 17.643 11.0435 17.4771 11.0306 17.2433C11.0176 17.0094 11.221 16.8199 11.6279 16.4408L15.7591 12.5912C17.9128 10.5844 18.9897 9.58093 18.7914 9.32802C18.5932 9.07511 17.3616 9.8812 14.8986 11.4934L8.79029 15.4915C8.40176 15.7458 8.2075 15.873 7.98538 15.9039C7.76326 15.9348 7.54164 15.8656 7.09842 15.7271L6.89854 15.6646C4.03251 14.769 2.59949 14.3212 2.57267 13.4313C2.54585 12.5414 3.9493 12.0081 6.75619 10.9415L19.8148 5.97919C22.1004 5.11068 23.2431 4.67642 23.9201 5.26046C24.597 5.84451 24.3349 7.0386 23.8107 9.42676Z" fill="currentColor"></path></svg>