<svg xmlns="http://www.w3.org/2000/svg" width="29" height="28" viewBox="0 0 29 28" fill="none"><path fill-rule="evenodd" clip-rule="evenodd" d="M11.9386 3.50061L16.5641 3.50061C17.9312 3.49781 18.6147 3.49641 19.2265 3.69463C19.7678 3.87001 20.266 4.15763 20.6885 4.5387C21.166 4.9694 21.5066 5.56208 22.1877 6.74744L24.5005 10.7532C25.1864 11.9357 25.5294 12.527 25.6636 13.1559C25.7824 13.7124 25.7824 14.2876 25.6636 14.8441C25.5294 15.473 25.1864 16.0642 24.5005 17.2467L22.1877 21.2526C21.5066 22.4379 21.166 23.0306 20.6885 23.4613C20.266 23.8424 19.7678 24.13 19.2265 24.3054C18.6147 24.5036 17.9312 24.5022 16.5641 24.4994H11.9386C10.5715 24.5022 9.88798 24.5036 9.2762 24.3054C8.73492 24.13 8.23674 23.8424 7.81422 23.4613C7.33667 23.0306 6.9961 22.4379 6.31497 21.2526L4.00226 17.2468C3.31628 16.0643 2.97329 15.473 2.83907 14.8441C2.72031 14.2876 2.72031 13.7124 2.83907 13.1559C2.97329 12.527 3.31628 11.9357 4.00226 10.7532L6.31497 6.74744C6.9961 5.56208 7.33667 4.96941 7.81422 4.53871C8.23674 4.15763 8.73492 3.87001 9.2762 3.69463C9.88798 3.49641 10.5715 3.49781 11.9386 3.50061ZM14.25 18C16.4591 18 18.25 16.2091 18.25 14C18.25 11.7909 16.4591 10 14.25 10C12.0409 10 10.25 11.7909 10.25 14C10.25 16.2091 12.0409 18 14.25 18Z" fill="currentColor"></path><path opacity="0.32" d="M18.25 14C18.25 16.2091 16.4591 18 14.25 18C12.0409 18 10.25 16.2091 10.25 14C10.25 11.7909 12.0409 10 14.25 10C16.4591 10 18.25 11.7909 18.25 14Z" fill="#8994A3"></path></svg>