<svg xmlns="http://www.w3.org/2000/svg" width="28" height="28" viewBox="0 0 28 28" fill="none"><path opacity="0.32" d="M12.5 10.0015C12.5 11.3822 11.3807 12.5015 10 12.5015C8.61929 12.5015 7.5 11.3822 7.5 10.0015C7.5 8.62075 8.61929 7.50146 10 7.50146C11.3807 7.50146 12.5 8.62075 12.5 10.0015Z" fill="currentColor"></path><path fill-rule="evenodd" clip-rule="evenodd" d="M19 11.0015C19 12.0402 18.802 13.0327 18.4418 13.9432L24.0627 19.5642C24.4086 19.9101 24.5816 20.0831 24.7053 20.2849C24.8149 20.4638 24.8957 20.6589 24.9447 20.863C25 21.0932 25 21.3378 25 21.8269V25.0015H20.5V23.5015H19V22.0015H17.5V20.5015H16L13.9418 18.4432C13.0312 18.8035 12.0387 19.0015 11 19.0015C6.58172 19.0015 3 15.4197 3 11.0015C3 6.58319 6.58172 3.00146 11 3.00146C15.4183 3.00146 19 6.58319 19 11.0015ZM10 12.5015C11.3807 12.5015 12.5 11.3822 12.5 10.0015C12.5 8.62075 11.3807 7.50146 10 7.50146C8.61929 7.50146 7.5 8.62075 7.5 10.0015C7.5 11.3822 8.61929 12.5015 10 12.5015Z" fill="currentColor"></path></svg>