<svg xmlns="http://www.w3.org/2000/svg" width="28" height="28" viewBox="0 0 28 28" fill="none"><mask id="path-1-inside-1_23209_61242" fill="white"><path fill-rule="evenodd" clip-rule="evenodd" d="M14 25.2515C20.2132 25.2515 25.25 20.2147 25.25 14.0015C25.25 7.78826 20.2132 2.75146 14 2.75146C7.7868 2.75146 2.75 7.78826 2.75 14.0015C2.75 20.2147 7.7868 25.2515 14 25.2515ZM15.5 9.00146C15.5 8.17304 14.8284 7.50146 14 7.50146C13.1716 7.50146 12.5 8.17304 12.5 9.00146V12.5015H9C8.17157 12.5015 7.5 13.173 7.5 14.0015C7.5 14.8299 8.17157 15.5015 9 15.5015H12.5V19.0015C12.5 19.8299 13.1716 20.5015 14 20.5015C14.8284 20.5015 15.5 19.8299 15.5 19.0015V15.5015H19C19.8284 15.5015 20.5 14.8299 20.5 14.0015C20.5 13.173 19.8284 12.5015 19 12.5015H15.5V9.00146Z"></path></mask><path fill-rule="evenodd" clip-rule="evenodd" d="M14 25.2515C20.2132 25.2515 25.25 20.2147 25.25 14.0015C25.25 7.78826 20.2132 2.75146 14 2.75146C7.7868 2.75146 2.75 7.78826 2.75 14.0015C2.75 20.2147 7.7868 25.2515 14 25.2515ZM15.5 9.00146C15.5 8.17304 14.8284 7.50146 14 7.50146C13.1716 7.50146 12.5 8.17304 12.5 9.00146V12.5015H9C8.17157 12.5015 7.5 13.173 7.5 14.0015C7.5 14.8299 8.17157 15.5015 9 15.5015H12.5V19.0015C12.5 19.8299 13.1716 20.5015 14 20.5015C14.8284 20.5015 15.5 19.8299 15.5 19.0015V15.5015H19C19.8284 15.5015 20.5 14.8299 20.5 14.0015C20.5 13.173 19.8284 12.5015 19 12.5015H15.5V9.00146Z" fill="currentColor"></path><path d="M12.5 12.5015V13.5015H13.5V12.5015H12.5ZM12.5 15.5015H13.5V14.5015H12.5V15.5015ZM15.5 15.5015V14.5015H14.5V15.5015H15.5ZM15.5 12.5015H14.5V13.5015H15.5V12.5015ZM24.25 14.0015C24.25 19.6624 19.6609 24.2515 14 24.2515V26.2515C20.7655 26.2515 26.25 20.767 26.25 14.0015H24.25ZM14 3.75146C19.6609 3.75146 24.25 8.34055 24.25 14.0015H26.25C26.25 7.23598 20.7655 1.75146 14 1.75146V3.75146ZM3.75 14.0015C3.75 8.34055 8.33908 3.75146 14 3.75146V1.75146C7.23451 1.75146 1.75 7.23598 1.75 14.0015H3.75ZM14 24.2515C8.33908 24.2515 3.75 19.6624 3.75 14.0015H1.75C1.75 20.767 7.23451 26.2515 14 26.2515V24.2515ZM14 8.50146C14.2761 8.50146 14.5 8.72532 14.5 9.00146H16.5C16.5 7.62075 15.3807 6.50146 14 6.50146V8.50146ZM13.5 9.00146C13.5 8.72532 13.7239 8.50146 14 8.50146V6.50146C12.6193 6.50146 11.5 7.62075 11.5 9.00146H13.5ZM13.5 12.5015V9.00146H11.5V12.5015H13.5ZM9 13.5015H12.5V11.5015H9V13.5015ZM8.5 14.0015C8.5 13.7253 8.72386 13.5015 9 13.5015V11.5015C7.61929 11.5015 6.5 12.6208 6.5 14.0015H8.5ZM9 14.5015C8.72386 14.5015 8.5 14.2776 8.5 14.0015H6.5C6.5 15.3822 7.61929 16.5015 9 16.5015V14.5015ZM12.5 14.5015H9V16.5015H12.5V14.5015ZM13.5 19.0015V15.5015H11.5V19.0015H13.5ZM14 19.5015C13.7239 19.5015 13.5 19.2776 13.5 19.0015H11.5C11.5 20.3822 12.6193 21.5015 14 21.5015V19.5015ZM14.5 19.0015C14.5 19.2776 14.2761 19.5015 14 19.5015V21.5015C15.3807 21.5015 16.5 20.3822 16.5 19.0015H14.5ZM14.5 15.5015V19.0015H16.5V15.5015H14.5ZM19 14.5015H15.5V16.5015H19V14.5015ZM19.5 14.0015C19.5 14.2776 19.2761 14.5015 19 14.5015V16.5015C20.3807 16.5015 21.5 15.3822 21.5 14.0015H19.5ZM19 13.5015C19.2761 13.5015 19.5 13.7253 19.5 14.0015H21.5C21.5 12.6208 20.3807 11.5015 19 11.5015V13.5015ZM15.5 13.5015H19V11.5015H15.5V13.5015ZM14.5 9.00146V12.5015H16.5V9.00146H14.5Z" fill="currentColor" mask="url(#path-1-inside-1_23209_61242)"></path><path opacity="0.32" d="M14 14.0015H19M14 14.0015H9M14 14.0015V9.00146M14 14.0015V19.0015" stroke="currentColor" stroke-width="3" stroke-linecap="round" stroke-linejoin="round"></path></svg>