<svg xmlns="http://www.w3.org/2000/svg" width="1.75rem" height="1.75rem" viewBox="0 0 28 28" fill="none"><path opacity="0.32" fill-rule="evenodd" clip-rule="evenodd" d="M15.9738 12.0253C16.9501 13.0016 18.533 13.0016 19.5093 12.0253C20.4857 11.049 20.4857 9.46605 19.5093 8.48974C18.533 7.51343 16.9501 7.51343 15.9738 8.48974C14.9975 9.46605 14.9975 11.049 15.9738 12.0253ZM3.953 24.0461C3.953 24.0461 8.19564 25.4603 11.7312 21.9248L6.07432 16.2679C2.53878 19.8034 3.953 24.0461 3.953 24.0461Z" fill="currentColor"></path><path fill-rule="evenodd" clip-rule="evenodd" d="M17.3879 19.0963V20.6212C17.388 21.6122 17.3879 22.1077 17.2458 22.553C17.1199 22.947 16.914 23.3107 16.6409 23.6214C16.3322 23.9724 15.9073 24.2273 15.0575 24.7372L13.6292 25.5942C12.5902 26.2176 12.0707 26.5293 11.7069 26.4681C11.3912 26.4151 11.12 26.2142 10.9773 25.9276C10.8129 25.5973 10.9599 25.0096 11.2537 23.8342L11.7311 21.9247C11.7311 21.9247 9.96333 21.5712 8.19556 19.8034C6.4278 18.0356 6.07424 16.2679 6.07424 16.2679L4.1648 16.7452C2.98934 17.0391 2.40162 17.186 2.07135 17.0216C1.78479 16.879 1.58384 16.6077 1.5308 16.2921C1.46968 15.9282 1.78137 15.4088 2.40475 14.3698L3.26178 12.9414C3.77166 12.0916 4.0266 11.6667 4.3776 11.3581C4.68821 11.085 5.05195 10.879 5.44596 10.7532C5.8912 10.611 6.38672 10.611 7.37775 10.611L8.90267 10.611C13.1453 3.53994 17.388 2.12572 23.0448 4.95415C25.8732 10.611 24.459 14.8536 17.3879 19.0963ZM15.9737 12.0252C16.95 13.0015 18.533 13.0015 19.5093 12.0252C20.4856 11.0489 20.4856 9.46599 19.5093 8.48968C18.533 7.51337 16.95 7.51337 15.9737 8.48968C14.9974 9.46599 14.9974 11.0489 15.9737 12.0252Z" fill="currentColor"></path></svg>